<?xml version="1.0" encoding="UTF-8" standalone="no"?>
<!-- Created with Inkscape (http://www.inkscape.org/) -->

<svg
   xmlns:dc="http://purl.org/dc/elements/1.1/"
   xmlns:cc="http://creativecommons.org/ns#"
   xmlns:rdf="http://www.w3.org/1999/02/22-rdf-syntax-ns#"
   xmlns:svg="http://www.w3.org/2000/svg"
   xmlns="http://www.w3.org/2000/svg"
   xmlns:sodipodi="http://sodipodi.sourceforge.net/DTD/sodipodi-0.dtd"
   xmlns:inkscape="http://www.inkscape.org/namespaces/inkscape"
   sodipodi:docname="smarthints_icon_active.svg"
   inkscape:version="0.48.4 r9939"
   version="1.1"
   id="svg2"
   height="24"
   width="24">
  <sodipodi:namedview
     id="base"
     pagecolor="#000000"
     bordercolor="#666666"
     borderopacity="1.0"
     inkscape:pageopacity="0.43137255"
     inkscape:pageshadow="2"
     inkscape:zoom="30.833333"
     inkscape:cx="8.2216217"
     inkscape:cy="12"
     inkscape:document-units="px"
     inkscape:current-layer="layer3"
     showgrid="false"
     fit-margin-top="0"
     fit-margin-left="0"
     fit-margin-right="0"
     fit-margin-bottom="0"
     inkscape:window-width="1535"
     inkscape:window-height="876"
     inkscape:window-x="65"
     inkscape:window-y="24"
     inkscape:window-maximized="1"
     inkscape:showpageshadow="true"
     borderlayer="false" />
  <defs
     id="defs4" />
  <metadata
     id="metadata7">
    <rdf:RDF>
      <cc:Work
         rdf:about="">
        <dc:format>image/svg+xml</dc:format>
        <dc:type
           rdf:resource="http://purl.org/dc/dcmitype/StillImage" />
        <dc:title></dc:title>
      </cc:Work>
    </rdf:RDF>
  </metadata>
  <g
     inkscape:groupmode="layer"
     id="layer3"
     inkscape:label="Layer#1"
     style="display:inline">
    <path
       inkscape:connector-curvature="0"
       d="M 3.0199548,12.738263 Q 2.9800398,12.527326 3.1596544,12.351545 3.3392652,12.175763 3.618644,12.140607 l 1.8359202,-0.28125 q 0.2793792,-0.03515 0.5188468,0.0879 0.2394683,0.123057 0.2793795,0.351563 0.039915,0.228507 -0.1397002,0.421875 -0.1796108,0.193369 -0.4989009,0.228507 l -1.7960093,0.246093 q -0.2793789,0.03515 -0.5188464,-0.0879 -0.2394676,-0.123056 -0.2793789,-0.369132 z m 0.039915,-4.517569 q -0.1197346,-0.228507 0,-0.439462 0.1197337,-0.210956 0.3791468,-0.28125 0.2594131,-0.0703 0.5388129,0.07031 l 1.6762748,0.632813 q 0.2793788,0.105469 0.3991126,0.316406 0.1197338,0.210938 0,0.421875 -0.1197338,0.210938 -0.3791469,0.28125 -0.2594134,0.07031 -0.5388132,0 L 3.4589825,8.519513 Q 3.1796036,8.449201 3.0598699,8.220676 z M 6.3325958,4.4941312 Q 6.3725108,4.265625 6.6119754,4.125 6.8115317,4.0195312 7.070965,4.0898475 7.3303991,4.16016 7.4900239,4.3710975 L 8.4878062,5.7421912 Q 8.6474512,5.9531287 8.6075399,6.1992225 8.5676249,6.4453162 8.3680724,6.550785 8.1685161,6.6562537 7.909082,6.60351 7.6496487,6.55077 7.4900239,6.3398295 L 6.4523303,4.9687357 Q 6.2926846,4.722642 6.3325958,4.494117 z M 7.4900239,8.835937 Q 7.8492252,8.132812 8.4878062,7.640625 9.1263871,7.148437 10.024401,6.9023437 10.922416,6.65625 11.960109,6.65625 l 0.07982,0 q 1.037694,0 1.915742,0.2460937 0.878049,0.2460933 1.536596,0.7382813 0.658546,0.492187 1.017748,1.195312 0.878048,1.863282 -0.31929,4.078126 -0.439025,0.773437 -0.957871,1.652343 -0.27938,0.457032 -0.498902,1.31835 -0.219523,0.86132 -0.339257,1.107432 -0.07982,0.210937 -0.31929,0.246093 l -4.1507742,0 Q 9.6851657,17.203129 9.565432,16.992188 8.9667623,14.988281 8.767206,14.566406 8.2483588,13.6875 7.8093342,12.914063 6.6119956,10.558594 7.4900441,8.835937 z M 9.525496,20.050781 q 0,-0.140625 0.099788,-0.228506 0.099789,-0.08788 0.2594139,-0.0879 l 4.2705091,0 q 0.119734,0 0.219522,0.0879 0.09979,0.0879 0.09979,0.228506 l 0,0.632813 q 0,0.140625 -0.09979,0.228506 Q 14.274939,20.99998 14.155207,21 L 9.8846979,21 Q 9.5254958,21 9.5254958,20.683594 l 0,-0.632813 z m 0,-1.230468 0,-0.632813 q 0,-0.316406 0.3592021,-0.316406 l 4.2705089,0 q 0.119734,0 0.219522,0.0879 0.09979,0.0879 0.09979,0.228506 l 0,0.632813 q 0,0.140625 -0.09979,0.228506 -0.09979,0.08788 -0.219522,0.0879 l -4.2705089,0 q -0.1596458,0 -0.2594139,-0.0879 -0.099768,-0.0879 -0.099788,-0.228506 z M 11.441239,5.25 l 0,-1.6171875 q 0,-0.28125 0.159645,-0.4570313 Q 11.760529,3 12.039908,3 q 0.239468,0 0.419058,0.1757812 0.179591,0.1757813 0.179611,0.4570313 l 0,1.6171875 q 0,0.2460937 -0.179611,0.421875 -0.179611,0.1757812 -0.419058,0.1757812 -0.279379,0 -0.439024,-0.1757812 Q 11.441239,5.4960937 11.441239,5.25 z m 3.951218,0.9492187 Q 15.352537,5.953125 15.51219,5.7421875 l 0.997783,-1.3710938 q 0.199557,-0.2109375 0.439024,-0.28125 0.239468,-0.070312 0.478936,0.035152 0.199556,0.140625 0.239468,0.3691313 0.03991,0.228507 -0.119734,0.4746187 L 16.549885,6.33984 Q 16.350328,6.5507775 16.11086,6.6035212 15.871392,6.6562612 15.65187,6.5507962 15.432348,6.4453275 15.392457,6.1992337 z m 2.394678,6.0996193 q 0.03991,-0.228507 0.259413,-0.351563 0.219501,-0.123056 0.498901,-0.0879 l 1.83592,0.28125 q 0.279379,0.03515 0.45899,0.210938 0.179611,0.175781 0.1397,0.386718 -0.03991,0.246094 -0.259413,0.369132 -0.219502,0.123038 -0.538813,0.0879 l -1.83592,-0.246094 q -0.279379,-0.03515 -0.439024,-0.228506 -0.159645,-0.193351 -0.119734,-0.421875 z m 0.17961,-3.357432 q -0.09979,-0.210937 0.01996,-0.421875 0.119754,-0.210937 0.359202,-0.316406 l 1.716185,-0.632813 q 0.239468,-0.140625 0.498902,-0.07031 0.259433,0.07031 0.379147,0.28125 0.119713,0.210937 0,0.439462 -0.119714,0.228525 -0.399113,0.298837 l -1.676274,0.703125 q -0.27938,0.07031 -0.538813,0 -0.259434,-0.07031 -0.359202,-0.28125 z"
       id="path3080"
       style="fill:#78B2F2" />
  </g>
</svg>
